# xmcd
#
# Track frame offsets: 
#        150
#        16752
#        34369
#        56079
#        77783
#        100956
#        117433
#        132941
#        150217
#        170644
#
# Disc length: 2456 seconds
#
# Revision: 2
# Processed by: cddbd v1.5.2PL0 Copyright (c) Steve Scherf et al.
# Submitted via: ExactAudioCopy v1.0b3
#
DISCID=7b09960a
DTITLE=The Savage Rose - Roots Of The Wasteland
DYEAR=2014
DGENRE=Rock
TTITLE0=The Joker
TTITLE1=Dear Little Children Of Mine
TTITLE2=You'll Know In The Morning
TTITLE3=The Shoeshine Boy Is dead
TTITLE4=Refugee
TTITLE5=So Long Gone
TTITLE6=Black Angel
TTITLE7=Mr. World
TTITLE8=The Storm
TTITLE9=Waste And Lullaby
EXTD=TargetCD 1420\n(P) and © 2014\n\nMusic by The Savage Rose\n\nAnnise
EXTD=tte Koppel: Lead vocal\nAmina Carsche Nissen: Choir\nMaja Rosa Ko
EXTD=ppel: Choir\nAnders Holm: Drums, percussion\nJakob Falgren: Bass,
EXTD=Moog\nPalle Hjorth: Piano, Hammond, keys, Mellotron\nRune Kjelds
EXTD=en: Guitars, mandolin\nFrank Hasselstrøm: Trombone, trumpet, Mell
EXTD=otron, keys\n(Piano on Wasteland Lullaby and Mr. World]\n
EXTT0=
EXTT1=
EXTT2=
EXTT3=
EXTT4=
EXTT5=
EXTT6=
EXTT7=
EXTT8=
EXTT9=
PLAYORDER=
